<mxfile host="app.diagrams.net" modified="2021-08-05T12:10:17.163Z" agent="5.0 (X11)" etag="UnKYbX96ym36P2hf6xPO" version="14.8.4" type="github">
  <diagram id="SevW0-K7TLu5oaMlUMI5">
    <mxGraphModel dx="1422" dy="715" grid="1" gridSize="10" guides="1" tooltips="1" connect="1" arrows="1" fold="1" page="1" pageScale="1" pageWidth="850" pageHeight="1100" math="0" shadow="0">
      <root>
        <mxCell id="0" />
        <mxCell id="1" parent="0" />
      </root>
    </mxGraphModel>
  </diagram>
</mxfile>
